<svg fill="none" xmlns="http://www.w3.org/2000/svg" viewBox="0 0 22 24"><path fill-rule="evenodd" clip-rule="evenodd" d="M20.42 6.055C17.096 1.564 10.707.58 6.15 3.855 1.592 7.132.592 13.431 3.918 17.923c3.325 4.492 9.714 5.476 14.27 2.2l1.153 1.55c-5.43 3.904-13.043 2.73-17.003-2.62-3.96-5.347-2.77-12.846 2.659-16.748C10.427-1.6 18.039-.425 22 4.925l-1.58 1.13z" fill="#fff"/><path fill-rule="evenodd" clip-rule="evenodd" d="M16.337 19.262l5.204-.001L19.114 24l-2.777-4.738zM7.092 17.673h2.206V5.712H7.092v11.961zM10.939 9.081h2.085v.994c0 .32-.034.59-.034.59h.034c.377-.725 1.334-1.786 3.095-1.786 1.932 0 3.026.994 3.026 3.268v5.526h-2.154v-5.088c0-1.044-.274-1.752-1.385-1.752-1.162 0-2.017.725-2.342 1.752-.12.354-.154.741-.154 1.146v3.942h-2.171V9.081z" fill="#fff"/></svg>